PathFileType	4	(X/Y/Z)	pose_F01_0-77.trc
DataRate	CameraRate	NumFrames	NumMarkers	Units	OrigDataRate	OrigDataStartFrame	OrigNumFrames
30	30	10	21	m	30	25	77
Frame#	Time	CHip			RHip			RKnee			RAnkle			RBigToe			RSmallToe			RHeel			LHip			LKnee			LAnkle			LBigToe			LSmallToe			LHeel			Neck			Nose			RShoulder			RElbow			RWrist			LShoulder			LElbow			LWrist			
		X1	Y1	Z1	X2	Y2	Z2	X3	Y3	Z3	X4	Y4	Z4	X5	Y5	Z5	X6	Y6	Z6	X7	Y7	Z7	X8	Y8	Z8	X9	Y9	Z9	X10	Y10	Z10	X11	Y11	Z11	X12	Y12	Z12	X13	Y13	Z13	X14	Y14	Z14	X15	Y15	Z15	X16	Y16	Z16	X17	Y17	Z17	X18	Y18	Z18	X19	Y19	Z19	X20	Y20	Z20	X21	Y21	Z21	
25	0.8333333333333334	-0.2112055284453273	1.8916749280023373	-0.6706796575306486	-0.23107639611038092	1.8898829208223413	-0.6038210465368329	-0.2553097479714709	1.7462438477673956	-0.5021863087715494													-0.1924641259918421	1.8915218029522751	-0.7268257908106172	-0.19633234738995986	1.7377184860268324	-0.6465152137004099	-0.2157813529464395	1.589706927872757	-0.5729632849958507	-0.22315539618670382	1.5532422885983244	-0.6396926549147242	-0.20884545606586008	1.5620460634176005	-0.6507819042451923	-0.21825456199904403	1.5789436155348857	-0.5394762630006615	-0.205398050521677	2.0541871170843127	-0.6478657262663826	-0.22080517104158454	2.111321361190129	-0.6370850713384627	-0.22865679010032572	2.038519592093601	-0.5644074586260656	-0.2699457206086918	2.0910355397776	-0.4715331854527566	-0.29358055926550003	2.157664799936895	-0.4160780112699465	-0.17722019543878018	2.0659384800927945	-0.7297578452520302	-0.1289590203469061	2.0927401136001267	-0.858106470627189	-0.16737004736708466	2.148806429995155	-0.7720023665943057
26	0.8666666666666667	-0.21169551671135287	1.8894718457771453	-0.6708880718852387	-0.23346980141048207	1.8879302777164944	-0.6101595175267064	-0.25996948251223323	1.7448592473603295	-0.497046531762515													-0.1905486395492795	1.8912213823609092	-0.7293314981799794	-0.19565125082325027	1.7368743374506077	-0.6512667707983584	-0.2159897728211303	1.587745223704322	-0.5726942358515507	-0.2233100313882854	1.5559301166577735	-0.6403142118095878	-0.21103585722232682	1.5647022308633654	-0.6491840546485913	-0.21833986070162772	1.5793387212102312	-0.5394358735930086	-0.20334374528497673	2.053046178481517	-0.6502210274074198	-0.2247710058910692	2.1070230999886728	-0.6401693562834662	-0.22749354141465908	2.038261823977436	-0.5697791537874067	-0.2678645642150239	2.090947269961521	-0.47319492793608553	-0.2976041835051263	2.151328861214266	-0.3874568393438332	-0.17647793180700946	2.0647772079581443	-0.7269753392599593	-0.1289590203469061	2.0927401136001267	-0.858106470627189	-0.16737004736708466	2.148806429995155	-0.7720023665943057
27	0.9	-0.21248212701373106	1.8898870628984976	-0.673993615709653	-0.23429186102699287	1.8879383364817157	-0.6133825776785539	-0.2598433049241476	1.7468677632320067	-0.49742346203496707													-0.18936859552581817	1.8907489372501205	-0.7345332552585067	-0.1982293650505928	1.7363369080185391	-0.6526911139193106	-0.2159255701302538	1.587578400272294	-0.5727053490481633	-0.22551203642993536	1.5566728903744986	-0.6378347243090527	-0.21091156619850648	1.563994979522335	-0.6490945910071771	-0.21842515940421142	1.5797338268855767	-0.5393954841853557	-0.2020819901703748	2.053256349555266	-0.6556398681112476	-0.22293857635767733	2.104449155528852	-0.6427479676288159	-0.22566086410741806	2.0370370825471786	-0.5722320107851879	-0.26694503142902454	2.0880194890860824	-0.4692824795888356	-0.3007164179349257	2.1434229534972253	-0.36603639014725947	-0.17420968114057636	2.065379766921282	-0.7293235809625811	-0.1289590203469061	2.0927401136001267	-0.858106470627189	-0.16737004736708466	2.148806429995155	-0.7720023665943057
28	0.9333333333333333	-0.21037566257483792	1.8913797864665598	-0.676718673411579	-0.2311777278473339	1.8904148143292832	-0.6214559581992477	-0.25880331048417876	1.7488692969959834	-0.5030989260380473													-0.1869963253457297	1.8937664101441554	-0.7373320246746811	-0.1984670897459642	1.7410336055701743	-0.6612790234281102	-0.2161876186734337	1.5889040094485762	-0.572449360106833	-0.22207512349869782	1.5551586861711655	-0.6370783796698635	-0.21074052872349658	1.5636782254710493	-0.6491210769739334	-0.21851045810679512	1.5801289325609222	-0.5393550947777027	-0.1999945282196618	2.055556992102606	-0.6581064605407917	-0.2238664473567009	2.1039342758990025	-0.6457969539818226	-0.2256579022144799	2.0368213237759356	-0.5722595353559782	-0.26490489852783683	2.0771428250259394	-0.4445340916836902	-0.29838984108550665	2.126045495736456	-0.33966293536916203	-0.17405852445013983	2.0692672339571856	-0.7293286485333632	-0.1289590203469061	2.0927401136001267	-0.858106470627189	-0.16737004736708466	2.148806429995155	-0.7720023665943057
29	0.9666666666666667	-0.2057218950826796	1.8936588632346552	-0.6814321356421852	-0.22641313054655038	1.891600719646132	-0.6260393031166935	-0.25874239125372445	1.7550180081984634	-0.503799871040805													-0.1845624714231176	1.8949155190896587	-0.739732440605921	-0.19622831598971968	1.740624538907409	-0.6635567471929534	-0.21614763933502654	1.5888987886512302	-0.5725555468269189	-0.22221768324738567	1.5559456741140294	-0.6366399558044712	-0.2106459297587628	1.5631136368469578	-0.6490202477080907	-0.2191816226938421	1.5788846436240476	-0.5427123915994965	-0.20000393307981867	2.0555819110648414	-0.6581615177137644	-0.2240410730910731	2.1012079037361855	-0.6455522841898341	-0.22573027988330527	2.035746053457176	-0.5723059456896104	-0.2669477143975004	2.0670081736367885	-0.43974014362548924	-0.29923401651066034	2.1098342264985126	-0.3092799318552888	-0.1740278700558805	2.0697552034415274	-0.729400830123199	-0.1289590203469061	2.0927401136001267	-0.858106470627189	-0.16737004736708466	2.148806429995155	-0.7720023665943057
30	1.0	-0.20578075341534416	1.8915202656523027	-0.6811685876064442	-0.22571281664139	1.8908643640087752	-0.6229486939900621	-0.25939646479958045	1.7519187132237442	-0.4984709120103987													-0.1854386494946479	1.8926155711623007	-0.742565002913229	-0.19756237496606152	1.7386900266378065	-0.6578707347436347	-0.21620968096513177	1.5891411889115565	-0.5724852281201323	-0.22434134375810671	1.5558490565545544	-0.6344835932881177	-0.21068039695966911	1.5630310602181487	-0.6489947472135192	-0.21939058637097525	1.5802542385615244	-0.5423086237667152	-0.20088521194515427	2.0566574494553143	-0.6615894422445936	-0.22412923786047328	2.1008018783672022	-0.6456669312588225	-0.22369095742303044	2.0360322463354157	-0.5745397514654598	-0.2670611881033803	2.0605815350160532	-0.4382335165414287	-0.3016169282395139	2.0975210153179473	-0.29811233815038074	-0.1746917898386832	2.0727616350333347	-0.732529609522719	-0.1289590203469061	2.0927401136001267	-0.858106470627189	-0.16737004736708466	2.148806429995155	-0.7720023665943057
31	1.0333333333333334	-0.20324771681324627	1.8977100797565052	-0.6843079091732713	-0.22225497862090338	1.895892818476339	-0.6311079866060062	-0.26055438146065363	1.7528872475766974	-0.5017923859945589													-0.1828674203073492	1.898909259127176	-0.7455201436874809	-0.19624757634263504	1.7410051292958388	-0.6636626972357527	-0.21629566864210614	1.5895615798975071	-0.5725612876633728	-0.22217995529797369	1.5558082324009048	-0.6367033338887551	-0.21112686176329248	1.5630338023749124	-0.6483159536591985	-0.2192477585982909	1.5793018639330352	-0.5423613520538402	-0.20088161354577228	2.0563005780649024	-0.6618108733880219	-0.22502100728553828	2.099942324701159	-0.6486681685644073	-0.22443522878733863	2.038777439568191	-0.5779419498439685	-0.2624746172804699	2.0519585096638835	-0.438031009075283	-0.2997465278326702	2.083222340526399	-0.2881188316825858	-0.17332022228458135	2.074501569327464	-0.738181056476098	-0.1289590203469061	2.0927401136001267	-0.858106470627189	-0.16737004736708466	2.148806429995155	-0.7720023665943057
32	1.0666666666666667	-0.20328887717583233	1.895396419192549	-0.6839431623088197	-0.222129420253331	1.8950003425356223	-0.6308123415093202	-0.25931962395059543	1.7540542725029502	-0.5074121384016874													-0.1821414499996348	1.8965783927389448	-0.7422211558206362	-0.1959507687196563	1.7452696777688386	-0.6644249397211405	-0.21416609074426352	1.5893023241482351	-0.5746821984104402	-0.22324213169564203	1.5564069407140917	-0.640027656691099	-0.2113199687544385	1.5638382074547779	-0.6483752317311815	-0.21913315118074986	1.5786261301148794	-0.5427316571169145	-0.2018298168572654	2.0573136970098727	-0.66516845658776	-0.22504673522932475	2.099985961849334	-0.648837617082367	-0.22447828694822633	2.0388741979520635	-0.5779328448706712	-0.2644818837963409	2.0506930981778817	-0.4359765460060792	-0.30068059026585303	2.0762611097218397	-0.2817924722751112	-0.17498449138160374	2.076449694665888	-0.7446026082137583	-0.1289590203469061	2.0927401136001267	-0.858106470627189	-0.16737004736708466	2.148806429995155	-0.7720023665943057
33	1.1	-0.2009995874831383	1.8966018977127257	-0.6863125845827829	-0.22106895751848615	1.8960991784132024	-0.6280582427050253	-0.2593568889288224	1.7532454863570714	-0.5075695043069993													-0.18276555875688036	1.8979690759945032	-0.7454363217578241	-0.19514598874101377	1.7424238987874112	-0.6606742458851703	-0.21411878516284816	1.589046893703452	-0.5745514188839047	-0.22006412261183791	1.5565174120573755	-0.6386296265455759	-0.20895942787443228	1.5630587878253843	-0.6504250142045404	-0.21915687575209922	1.578701638852296	-0.5425601270561132	-0.2017920888944191	2.0583555643366798	-0.665248896994855	-0.22794447296333267	2.100507129894753	-0.6496820009953252	-0.2243830131073737	2.04021580257904	-0.577938421723756	-0.2675431508041487	2.048246511005293	-0.43634567065212354	-0.30371045800435814	2.065950695902311	-0.2797004006670933	-0.17658943597207624	2.0785247082018263	-0.7509982019688234	-0.1289590203469061	2.0927401136001267	-0.858106470627189	-0.16737004736708466	2.148806429995155	-0.7720023665943057
34	1.1333333333333333	-0.20107944633941616	1.8983421219058079	-0.6865985548915241	-0.22208903325394225	1.8992922093563913	-0.631547587893061	-0.2593837656974141	1.753915748209982	-0.5076312546636725													-0.1828184362636306	1.8991588429580335	-0.7456322105042943	-0.19419216989425195	1.7422586262298465	-0.657539302445358	-0.21406407443020573	1.5889867280287013	-0.574671751552347	-0.21995536514963276	1.5555394343297282	-0.638929503055655	-0.20882952198910526	1.5623092114112112	-0.6507597755020224	-0.2195529266729836	1.5783366828919896	-0.5418397963345264	-0.20047483757735188	2.0596836896509827	-0.670312899980227	-0.23056091892633188	2.101616627707466	-0.6585889928625688	-0.22437174616220376	2.041898680298061	-0.5784781319557961	-0.26263772718488126	2.048165210327596	-0.4375362782892148	-0.2986062075874133	2.0597215229957446	-0.25720220910377284	-0.17525237077723052	2.0802385484663017	-0.7566279018582942	-0.1289590203469061	2.0927401136001267	-0.858106470627189	-0.16737004736708466	2.148806429995155	-0.7720023665943057
